<?xml version="1.0" standalone="no"?><!DOCTYPE svg PUBLIC "-//W3C//DTD SVG 1.1//EN" "http://www.w3.org/Graphics/SVG/1.1/DTD/svg11.dtd"><svg t="1513322639681" class="icon" style="" viewBox="0 0 1024 1024" version="1.1" xmlns="http://www.w3.org/2000/svg" p-id="1843" xmlns:xlink="http://www.w3.org/1999/xlink" width="32" height="32"><defs><style type="text/css"></style></defs><path d="M511.999488 64.815191c-246.973928 0-447.184809 200.210881-447.184809 447.184809s200.210881 447.184809 447.184809 447.184809 447.184809-200.210881 447.184809-447.184809S758.972393 64.815191 511.999488 64.815191zM792.446785 364.407524 432.915315 723.93797c-2.921539 2.921539-6.616698 4.613064-10.489912 5.127787-6.634094 1.994424-14.122649 0.375553-19.364023-4.865821L217.504244 538.6428c-7.592932-7.592932-7.592932-19.903306 0-27.496238l23.064298-23.064298c7.591909-7.592932 19.903306-7.592932 27.496238 0l149.792585 149.792585 324.028884-324.028884c7.342222-7.341199 19.549242-7.037277 27.26497 0.678452l22.61916 22.61916C799.485085 344.859305 799.789007 357.066325 792.446785 364.407524z" p-id="1844" fill="#d81e06"></path></svg>